<?xml version="1.0" encoding="UTF-8"?>
<svg xmlns="http://www.w3.org/2000/svg"
     width="240" height="48"
     viewBox="425.5 517.5 1265 248"
     preserveAspectRatio="xMinYMid meet">
  <path fill="#FFFFFF" fill-rule="evenodd" d="M 662.0 753.5 L 454.0 753.5 L 445.0 749.5 L 440.5 745.0 L 437.5 738.0 L 437.5 541.0 L 440.5 535.0 L 447.0 530.5 L 452.0 529.5 L 509.0 529.5 L 511.5 532.0 L 511.5 701.0 L 515.0 705.5 L 675.0 706.5 L 676.5 708.0 L 676.5 742.0 L 671.0 749.5 Z M 651.0 670.5 L 561.0 670.5 L 555.0 668.5 L 549.5 663.0 L 547.5 659.0 L 547.5 551.0 L 549.5 544.0 L 559.0 533.5 L 569.0 529.5 L 653.0 529.5 L 664.0 533.5 L 672.5 542.0 L 676.5 552.0 L 676.5 646.0 L 673.5 654.0 L 668.0 661.5 L 660.0 667.5 Z M 641.5 647.0 L 646.5 644.0 L 648.5 639.0 L 647.5 556.0 L 640.0 550.5 L 580.0 551.5 L 575.5 558.0 L 576.5 643.0 L 583.0 647.5 Z M 930.0 740.5 L 814.0 739.5 L 812.5 738.0 L 812.5 565.0 L 814.0 563.5 L 856.0 563.5 L 857.5 565.0 L 857.5 703.0 L 860.0 705.5 L 931.0 705.5 L 932.5 707.0 L 932.5 738.0 Z M 1021.0 743.5 L 993.0 742.5 L 978.0 738.5 L 966.0 732.5 L 948.5 715.0 L 939.5 695.0 L 937.5 686.0 L 937.5 664.0 L 939.5 654.0 L 946.5 637.0 L 962.0 619.5 L 983.0 608.5 L 996.0 605.5 L 1025.0 605.5 L 1045.0 610.5 L 1061.0 619.5 L 1071.5 630.0 L 1076.5 637.0 L 1082.5 651.0 L 1085.5 666.0 L 1085.5 682.0 L 1083.5 694.0 L 1076.5 711.0 L 1069.5 721.0 L 1056.0 732.5 L 1038.0 740.5 Z M 1020.5 710.0 L 1033.0 704.5 L 1038.5 699.0 L 1042.5 692.0 L 1045.5 679.0 L 1044.5 661.0 L 1038.5 648.0 L 1028.0 638.5 L 1019.0 635.5 L 1004.0 635.5 L 997.0 637.5 L 991.0 641.5 L 986.5 646.0 L 981.5 655.0 L 978.5 670.0 L 980.5 688.0 L 984.5 697.0 L 992.0 705.5 L 1004.0 710.5 Z M 1156.0 742.5 L 1136.0 742.5 L 1124.0 739.5 L 1115.0 734.5 L 1107.5 727.0 L 1103.5 720.0 L 1100.5 709.0 L 1100.5 610.0 L 1102.0 608.5 L 1139.0 608.5 L 1140.5 610.0 L 1140.5 696.0 L 1142.5 701.0 L 1151.0 707.5 L 1167.0 708.5 L 1174.0 706.5 L 1182.0 701.5 L 1187.5 695.0 L 1189.5 689.0 L 1189.5 610.0 L 1191.0 608.5 L 1228.0 608.5 L 1229.5 610.0 L 1230.5 738.0 L 1229.0 739.5 L 1192.0 739.5 L 1190.5 738.0 L 1190.5 726.0 L 1188.0 723.5 L 1173.0 736.5 Z M 1338.0 742.5 L 1307.0 742.5 L 1294.0 740.5 L 1282.0 736.5 L 1272.0 730.5 L 1262.5 722.0 L 1255.5 713.0 L 1250.5 703.0 L 1246.5 688.0 L 1246.5 662.0 L 1249.5 650.0 L 1254.5 639.0 L 1261.5 629.0 L 1274.0 617.5 L 1287.0 610.5 L 1307.0 605.5 L 1332.0 605.5 L 1343.0 607.5 L 1352.0 610.5 L 1364.0 617.5 L 1374.5 628.0 L 1378.5 635.0 L 1381.5 644.0 L 1381.5 661.0 L 1377.5 672.0 L 1368.0 681.5 L 1359.0 685.5 L 1345.0 687.5 L 1291.0 686.5 L 1288.5 689.0 L 1291.5 698.0 L 1297.0 703.5 L 1313.0 710.5 L 1347.0 710.5 L 1361.0 707.5 L 1376.0 701.5 L 1378.5 703.0 L 1378.5 729.0 L 1375.0 732.5 L 1356.0 739.5 Z M 1333.5 664.0 L 1337.0 663.5 L 1343.5 659.0 L 1345.5 655.0 L 1345.5 647.0 L 1342.5 642.0 L 1337.0 637.5 L 1323.0 633.5 L 1310.0 634.5 L 1299.0 639.5 L 1292.5 646.0 L 1287.5 658.0 L 1287.5 662.0 L 1290.0 664.5 Z M 1458.0 739.5 L 1423.0 739.5 L 1414.0 735.5 L 1408.5 729.0 L 1405.5 722.0 L 1405.5 559.0 L 1407.0 557.5 L 1444.0 557.5 L 1446.5 560.0 L 1446.5 714.0 L 1450.5 727.0 L 1459.5 737.0 Z M 1528.0 739.5 L 1496.0 739.5 L 1490.0 737.5 L 1479.5 730.0 L 1472.5 716.0 L 1471.5 559.0 L 1473.0 557.5 L 1509.0 557.5 L 1510.5 559.0 L 1511.5 703.0 L 1516.0 707.5 L 1528.0 708.5 L 1529.5 710.0 L 1530.5 737.0 Z M 1615.0 743.5 L 1587.0 742.5 L 1578.0 740.5 L 1563.0 733.5 L 1545.5 718.0 L 1538.5 706.0 L 1534.5 694.0 L 1532.5 671.0 L 1534.5 656.0 L 1539.5 642.0 L 1546.5 631.0 L 1558.0 619.5 L 1574.0 610.5 L 1586.0 606.5 L 1621.0 605.5 L 1631.0 607.5 L 1646.0 613.5 L 1654.0 618.5 L 1669.5 635.0 L 1676.5 650.0 L 1678.5 658.0 L 1678.5 689.0 L 1673.5 706.0 L 1667.5 716.0 L 1655.0 729.5 L 1649.0 733.5 L 1633.0 740.5 Z M 1615.5 710.0 L 1628.0 704.5 L 1632.5 700.0 L 1637.5 691.0 L 1640.5 679.0 L 1640.5 666.0 L 1638.5 657.0 L 1632.5 646.0 L 1621.0 637.5 L 1613.0 635.5 L 1595.0 636.5 L 1586.0 641.5 L 1577.5 652.0 L 1573.5 668.0 L 1573.5 679.0 L 1575.5 689.0 L 1580.5 699.0 L 1590.0 707.5 L 1599.0 710.5 Z"/>
</svg>
